<?xml version="1.0" encoding="UTF-8"?>
<svg width="38px" height="38px" viewBox="0 0 38 38" version="1.1" xmlns="http://www.w3.org/2000/svg" xmlns:xlink="http://www.w3.org/1999/xlink">
    <!-- Generator: Sketch 43.1 (39012) - http://www.bohemiancoding.com/sketch -->
    <title>Invision-black</title>
    <desc>Created with Sketch.</desc>
    <defs>
        <linearGradient x1="50%" y1="0%" x2="50%" y2="104.161697%" id="linearGradient-1">
            <stop stop-color="#27449A" offset="0%"></stop>
            <stop stop-color="#5289BB" offset="100%"></stop>
        </linearGradient>
    </defs>
    <g id="Page-1" stroke="none" stroke-width="1" fill="none" fill-rule="evenodd">
        <g id="Contact-Page" transform="translate(-164.000000, -681.000000)" fill="url(#linearGradient-1)">
            <path d="M198.555242,681 L167.444758,681 C165.542311,681 164,682.542311 164,684.444758 L164,715.555242 C164,717.457689 165.542311,719 167.444758,719 L198.555242,719 C200.457689,719 202,717.457689 202,715.555242 L202,684.444758 C202,682.542311 200.457689,681 198.555242,681 L198.555242,681 Z M176.699629,692.955894 C177.962841,692.955894 179.020939,691.965735 179.020939,690.668121 C179.020939,689.371371 177.962841,688.3815 176.699629,688.3815 C175.436417,688.3815 174.378462,689.371371 174.378462,690.668121 C174.378462,691.965735 175.436417,692.955894 176.699629,692.955894 L176.699629,692.955894 Z M171.886295,705.204992 C171.749985,705.785356 171.68147,706.412068 171.68147,706.923341 C171.68147,708.937773 172.773826,710.275114 175.09528,710.275114 C177.020614,710.275114 178.581348,709.131659 179.705083,707.285636 L179.018924,710.039629 L182.841955,710.039629 L185.026955,701.276023 C185.573061,699.057053 186.631303,697.905394 188.235939,697.905394 C189.499008,697.905394 190.284197,698.690871 190.284197,699.987621 C190.284197,700.363447 190.249939,700.772667 190.113485,701.216576 L188.986727,705.24472 C188.816015,705.825083 188.748076,706.405879 188.748076,706.951553 C188.748076,708.863932 189.874402,710.262735 192.229826,710.262735 C194.24397,710.262735 195.848318,708.966129 196.735992,705.859485 L195.234129,705.279553 C194.482909,707.360917 193.834318,707.737174 193.322326,707.737174 C192.810189,707.737174 192.536992,707.396038 192.536992,706.713621 C192.536992,706.406455 192.605508,706.065462 192.707705,705.654947 L193.800348,701.730439 C194.073258,700.808939 194.175886,699.991795 194.175886,699.241008 C194.175886,696.30522 192.400538,694.773129 190.249939,694.773129 C188.235939,694.773129 186.187538,696.589788 185.163697,698.501735 L185.914485,695.069932 L180.077167,695.069932 L179.25772,698.092659 L181.988826,698.092659 L180.307182,704.825856 C178.986394,707.761644 176.560439,707.809288 176.256008,707.741061 C175.756106,707.628356 175.436417,707.4385 175.436417,706.788902 C175.436417,706.414083 175.504644,705.87575 175.675356,705.226583 L178.235894,695.069932 L171.749985,695.069932 L170.930538,698.092659 L173.627242,698.092659 L171.886295,705.204992 L171.886295,705.204992 Z" id="Invision"></path>
        </g>
    </g>
</svg>