<?xml version="1.0" encoding="UTF-8"?>
<svg width="38px" height="32px" viewBox="0 0 38 32" version="1.1" xmlns="http://www.w3.org/2000/svg" xmlns:xlink="http://www.w3.org/1999/xlink">
    <!-- Generator: Sketch 43.1 (39012) - http://www.bohemiancoding.com/sketch -->
    <title>Twitter-black</title>
    <desc>Created with Sketch.</desc>
    <defs>
        <linearGradient x1="50%" y1="0%" x2="50%" y2="104.161697%" id="linearGradient-1">
            <stop stop-color="#27449A" offset="0%"></stop>
            <stop stop-color="#5289BB" offset="100%"></stop>
        </linearGradient>
    </defs>
    <g id="Page-1" stroke="none" stroke-width="1" fill="none" fill-rule="evenodd">
        <g id="Contact-Page" transform="translate(-106.000000, -684.000000)" fill="url(#linearGradient-1)">
            <path d="M144,687.788227 C142.603745,688.430769 141.100428,688.865294 139.523508,689.059444 C141.133885,688.060961 142.369549,686.477718 142.951693,684.591694 C141.443916,685.516215 139.777778,686.188805 137.997887,686.549368 C136.579327,684.979993 134.551858,684 132.308035,684 C128.005517,684 124.514879,687.61719 124.514879,692.078007 C124.514879,692.711304 124.581793,693.326111 124.715619,693.917804 C118.236192,693.580354 112.49281,690.367642 108.645301,685.474612 C107.973939,686.671867 107.590303,688.060961 107.590303,689.540195 C107.590303,692.341495 108.966485,694.81459 111.058637,696.263778 C109.782826,696.224485 108.578388,695.856988 107.525621,695.256049 L107.525621,695.355435 C107.525621,699.270784 110.2133,702.536656 113.782004,703.276273 C113.128485,703.4658 112.439279,703.560563 111.727769,703.560563 C111.22592,703.560563 110.735223,703.512026 110.26014,703.417263 C111.252685,706.625352 114.129952,708.96208 117.542525,709.024485 C114.874919,711.192488 111.511416,712.484507 107.860187,712.484507 C107.231203,712.484507 106.60891,712.447526 106,712.373564 C109.45049,714.661755 113.550038,716 117.950696,716 C132.292422,716 140.132418,703.692308 140.132418,693.016396 C140.132418,692.665078 140.125726,692.313759 140.112344,691.969375 C141.635734,690.829902 142.958385,689.408451 144,687.788227" id="Twitter"></path>
        </g>
    </g>
</svg>